<?xml version="1.0" encoding="utf-8"?>
<!-- Generator: Adobe Illustrator 25.3.1, SVG Export Plug-In . SVG Version: 6.00 Build 0)  -->
<svg version="1.1" xmlns="http://www.w3.org/2000/svg" xmlns:xlink="http://www.w3.org/1999/xlink" x="0px" y="0px"
	 viewBox="0 0 854.9 1066" style="enable-background:new 0 0 854.9 1066;" xml:space="preserve">
<style type="text/css">
	.st0{fill:#FFFFFF;}
	.st1{fill:#FFFFFF;fill-opacity:0;}
	.st2{fill:#B3B3B3;}
	.st3{fill:#333333;}
</style>
<g id="quiet">
	<g id="Ebene_3">
		<path id="_x3C_Pfad_x3E_" class="st0" d="M822.2,186.7c-81.6,1-281.8,2.5-360.9-2.4L444,153.8l-15-11l-21,47l-33-22l-35-12
			l-2.9,48.8l-38.1,9.2c-1-3.8-29.7-16.1-33-18c-31.8-5.9-138.3-1.9-172-1l-1.7,7.4l18.7,31.6l21,23l26,18L1.9,347.6L51,384.8l54,27
			l66,22c20.1,3.1,81.6,13.5,101.2,10.8l0.8,4.2c-12.7,4.6-62.8,21.1-73.2,28.5l6.2,8.5l51,34c1.5,0.2,29.3,5.8,30,5l3,4l-19,21
			l-28,14l-22,5l-2,9l18,16c3.9,1.3,37.6,15.9,41,15c-17.7,27.5-58.1,65.2-83,86l75,44l38,11h12.1l1.4,7.5l-44,46l-47,67l-40,79
			l-13,44l1,13c21.1-18.9,104.2-57.7,130.5-70.5c-20.8,25.8-79.3,97.8-95.9,125l577.4,3.5l-68.2-88.8l-47.8-83.2l-26-70l-11-72l2-64
			l15-70l33-72l45-61c25.3-26.2,86.7-72.4,117-93c-6.4-6.9-23.7-22.6-31-29l-18-37l-4-37l5-41"/>
		<g>
			<g>
				<path d="M462,185.8c119.8,5.6,239.7,6.3,359.5,1.8c1.9-0.1,1.9-3.1,0-3c-46.8,1.7-93.6,2.7-140.4,2.9
					c-73.1,0.2-146.2-1.1-219.2-4.7C460.1,182.7,460.1,185.7,462,185.8z"/>
			</g>
		</g>
		<g>
			<g>
				<path d="M847.3,384.9c-69.9-45.2-52.3-134.6-21.8-198.8c0.7-1.8-2.2-2.6-2.9-0.8c-23,53.3-44.5,119.7-7.5,171.8
					C815.6,360.9,851.3,397.5,847.3,384.9L847.3,384.9z"/>
			</g>
		</g>
		<g>
			<g>
				<path d="M529.9,318.1c89,9.8,178.8,12.2,268.3,7.2c2.3-0.1,4.6-2,4.5-4.5c-0.1-2.3-2-4.6-4.5-4.5c-69.8,3.9-139.9,3.4-209.6-1.8
					c-19.6-1.4-39.2-3.2-58.7-5.4C524.2,308.9,524,318,529.9,318.1z"/>
			</g>
		</g>
		<g>
			<g>
				<path d="M778.5,232.5c-0.7-11.5-8.5-21.6-19.4-25.2c-5.5-1.5-8,7-2.4,8.6c1.6,0.5,3.2,1.2,5.5,2.9c0.3,0.2,0.2,0.1-0.3-0.2
					c1.2,1,2.4,2.2,3.4,3.4c0.2,0.3,0.8,0.7,0,0c1.3,1.2,1.9,3.4,2.9,4.9c-0.1-0.2-0.1-0.3-0.2-0.5c0.6,1.6,1.1,3.6,1.4,5.2
					c-0.2-1.7-0.1,0.5,0,0.8C769.4,238.1,778.7,238.3,778.5,232.5L778.5,232.5z"/>
			</g>
		</g>
		<g>
			<g>
				<path d="M498.7,501.6c73-16.2,145.3-35.1,217-56.6c45.7-15.4,96.2-24,134.9-54.5c1.5-1.2-0.6-3.3-2.1-2.1
					c-16.9,14-37.3,22.8-57.8,29.9c-46.1,15.6-92.8,29.2-139.7,42.3c-47.7,13.2-95.7,25.3-144,36.1c-3,0.7-6,1.4-9,2
					C496,499.1,496.8,502,498.7,501.6z"/>
			</g>
		</g>
		<g>
			<g>
				<path d="M806.1,420.4c-122.3,76.2-189.9,227.3-165,369.2c16.1,99.4,75.7,184.2,137,261.5c4.2,4.8,14.7,21,13.6,12.4
					c-94.6-112.2-180.1-253.6-145.3-405.9c17.9-90.4,72.2-172.6,147.7-225.4C798.2,428.5,814.2,421.2,806.1,420.4L806.1,420.4z"/>
			</g>
		</g>
		<g>
			<g>
				<path d="M413.6,181.3c5.6-13,11.1-26.1,16.7-39.1c-0.7,0.2-1.4,0.4-2.1,0.5c14.7,10.7,25.9,26.2,30.9,43.7
					c0.5,1.9,3.4,1.1,2.9-0.8c-5.2-18.3-16.7-34.5-32.2-45.6c-0.6-0.4-1.8-0.2-2.1,0.5C427.5,143.5,404.3,188.4,413.6,181.3
					L413.6,181.3z"/>
			</g>
		</g>
		<g>
			<g>
				<path d="M338.6,203.9c1.5-15.3,0.4-32.1,3-46.7c17,3.9,33.4,11.2,48.1,20.6c7.4,4.8,14.4,10.3,20.8,16.3
					c1.4,1.3,3.5-0.8,2.1-2.1c-18.1-16.9-40.5-29.7-64.5-36.3c-3-0.8-8.7-3.3-10,1c-1.3,15.6-1.7,31.4-2.6,47.1
					C335.5,205.9,338.5,205.9,338.6,203.9L338.6,203.9z"/>
			</g>
		</g>
		<g>
			<g>
				<path d="M425.2,279.9c10.2-40.4-29.7-39.4-25.6-13.9c-0.2-1.2-0.3-2.4-0.5-3.6c0.5,3.6,0.5,7.3,0,11c0.2-1.2,0.3-2.4,0.5-3.6
					C392.9,288,418.9,298.4,425.2,279.9L425.2,279.9z"/>
			</g>
		</g>
		<g>
			<g>
				<path d="M271.3,443.1C174,444.4,77,409.4,2.5,346.8c-0.1,0.8-0.2,1.6-0.3,2.4c65.2-30.2,130.4-60.5,195.6-90.7
					c43.9-19.8,87.1-43.7,135.1-51.7c1.9-0.3,1.1-3.2-0.8-2.9c-22.2,3.6-43.5,10.9-64.2,19.5c-65,28.5-129,59.6-193.5,89.1
					c-24.6,11.3-49.1,22.9-73.7,34.1c-0.8,0.4-1,1.8-0.3,2.4c58.4,49.4,130.9,81.7,206.5,92.8C212,442.8,281.5,450.8,271.3,443.1
					L271.3,443.1z"/>
			</g>
		</g>
		<g>
			<g>
				<path d="M149.4,266.9c-21.7-13.7-39.4-33.4-50.9-56.2c-5.5-11-8.8-15.2,6.7-14.4c31.9-0.5,64-1.2,96-1.6
					c31.5-0.5,66.1-2.6,93.1,16.4c1.6,1.1,3.1-1.5,1.5-2.6c-35.4-24.2-81-15.8-121.4-16.4c-22.1,0.4-44.1,0.8-66.2,1.1
					c-5.7,0.7-15.3-2.1-17.3,5.1c7.9,29.6,31.9,54.4,57,71.2C149.5,270.5,151,267.9,149.4,266.9L149.4,266.9z"/>
			</g>
		</g>
		<g>
			<g>
				<path d="M272.2,447.1c-23.7,6.6-46.8,15.3-68.9,26.1c-7.1,2.2-6.3,7.6-0.5,11c25.7,17.2,50.1,44.2,83.6,41.6
					c1.9-0.1,1.9-3.1,0-3c-11.2,0.7-22.5-1.5-32.5-6.6c-15.4-8.5-28.9-19.9-43.4-29.9c-2.2-2.5-14.4-7.7-6.6-10
					c22.1-10.8,45.3-19.7,69.1-26.3C274.9,449.5,274.1,446.6,272.2,447.1L272.2,447.1z"/>
			</g>
		</g>
		<g>
			<g>
				<path d="M288.3,528.2c-10.3,15.7-26.2,27.4-44.1,32.8c-8.5,3.6-20.9,0.6-26.1,9.6c-3.8,10,8.9,16,15.2,21.3
					c22.6,15.7,51.1,22.3,78.3,17.9c-0.6-0.7-1.1-1.5-1.7-2.2c-5.4,14.4-31.1,66.9-4.8,70.2c17.6-1.5,32.2-15.2,48-22.2
					c2.2-2.3,48.2-23,35.6-22.7c-20.8,11.3-41.7,22.6-62.5,33.9c-11.4,8.1-32.6,14.8-29.6-7.2c2.9-17.4,8.7-34.4,16-50.4
					c0.6-1.2-0.4-2.4-1.7-2.2c-30.7,5-63.7-4.8-86.5-26c-14.3-14.1,12.5-14,20.8-17c5.7-1.7,11.2-4.1,16.4-7
					C265.6,557.4,301.7,524.3,288.3,528.2L288.3,528.2z"/>
			</g>
		</g>
		<g>
			<g>
				<path d="M271.4,616.6c-22.3,28.9-48.7,54.8-78.2,76.4c-0.9,0.7-1,2,0,2.6c31.7,18.3,61.5,41.4,97.1,51.8
					c3,1.4,37.9,7.4,29.8,0.6c-47.6,1.1-86-32.8-125.4-54.9c0,0.9,0,1.7,0,2.6c29.9-22,56.7-48,79.2-77.5
					C275,616.6,272.3,614.8,271.4,616.6L271.4,616.6z"/>
			</g>
		</g>
		<g>
			<g>
				<path d="M319.8,756.1c-53.9,52.5-97.1,115.9-126.5,185.2c-8.2,20.7-18.9,42.2-16.7,65c0.1,1,1.2,2,2.3,1.3
					c15.8-11.3,32.4-21.4,49.5-30.6c26.7-14.6,54.5-27,82.2-39.5c-0.6-0.8-1.2-1.6-1.8-2.4c-34.5,39.6-66.7,81.2-96.8,124.1
					c-1.1,1.6,1.5,3.1,2.6,1.5c11.6-16.7,23.6-33.1,35.9-49.3c19.3-25.3,39.5-50.1,60.4-74.2c1.2-1.3-0.3-3.1-1.8-2.4
					c-45.3,20.5-91.2,40.9-131.6,70.1c0.8,0.4,1.5,0.9,2.3,1.3c-1.8-45,42.2-118.4,66.6-156.8c20.7-31.1,44.5-60.1,71-86.6
					c1.6-1.6,3.3-3.3,4.9-4.9C323.3,756.9,321.2,754.7,319.8,756.1L319.8,756.1z"/>
			</g>
		</g>
		<g>
			<g>
				<path d="M380.9,1022.6c8.5-53.6,23-106.3,43.4-156.6c0.4-0.9-0.6-1.9-1.4-1.9c-25.7,0.2-51,7.2-73.2,20c0.7,0.6,1.5,1.1,2.2,1.7
					c15.4-67.2,41.2-132.3,80.4-189.3c1.1-1.6-1.5-3.1-2.6-1.5c-14.9,22-28.1,45.1-39.6,69.1c-18.6,38.4-31.3,79.5-41.2,120.9
					c-0.3,1.3,1.1,2.4,2.2,1.7c21.7-12.5,46.7-19.4,71.7-19.6c-0.5-0.6-1-1.3-1.4-1.9c-20.3,50.3-34.8,103-43.4,156.6
					C377.7,1023.7,380.6,1024.5,380.9,1022.6L380.9,1022.6z"/>
			</g>
		</g>
		<path id="clickoverlay" class="st1" d="M822.2,186.7c-81.6,1-281.8,2.5-360.9-2.4L444,153.8l-15-11l-21,47l-33-22l-35-12
			l-2.9,48.8l-38.1,9.2c-1-3.8-29.7-16.1-33-18c-31.8-5.9-138.3-1.9-172-1l-1.7,7.4l18.7,31.6l21,23l26,18L1.9,347.6L51,384.8l54,27
			l66,22c20.1,3.1,81.6,13.5,101.2,10.8l0.8,4.2c-12.7,4.6-62.8,21.1-73.2,28.5l6.2,8.5l51,34c1.5,0.2,29.3,5.8,30,5l3,4l-19,21
			l-28,14l-22,5l-2,9l18,16c3.9,1.3,37.6,15.9,41,15c-17.7,27.5-58.1,65.2-83,86l75,44l38,11h12.1l1.4,7.5l-44,46l-47,67l-40,79
			l-13,44l1,13c21.1-18.9,104.2-57.7,130.5-70.5c-20.8,25.8-79.3,97.8-95.9,125l577.4,3.5l-68.2-88.8l-47.8-83.2l-26-70l-11-72l2-64
			l15-70l33-72l45-61c25.3-26.2,86.7-72.4,117-93c-6.4-6.9-23.7-22.6-31-29l-18-37l-4-37l5-41"/>
	</g>
</g>
<g id="merp">
	<polyline class="st2" points="679.3,501.5 682.3,489.5 688.3,436.5 683.8,384.4 668.3,346.5 641.3,315.5 610.3,297.5 588.3,290.5 
		590.3,311.5 564.3,309.5 557.3,314.5 555.3,322.5 546.3,340.5 562.3,335.5 583.3,333.5 585.3,351.5 597.7,349.4 608.3,387.5 
		631.3,384.5 629.3,413.5 640.3,454.5 	"/>
	<polygon points="625.3,228.5 629.3,232.5 637.3,255.5 612.3,264.5 618.3,284.5 586.3,287.5 591.3,312.5 563.3,308.5 556.3,318.5 
		555.3,323.5 547.3,339.5 562.3,335.5 582.3,334.5 585.3,352.5 597,350 607.3,387.5 632.2,383.7 630.3,421.5 638.3,444.5 
		640.3,454.5 532.3,325.5 	"/>
	<polygon points="555.3,321.5 564.3,336.5 547.3,339.5 	"/>
	<polyline class="st3" points="748.3,98.5 702.7,333.1 711.3,371.5 735.3,438.5 748.3,504.2 766.3,607.5 678.3,502.5 682.3,489.5 
		688.3,428.7 682.3,377.5 663.3,338.5 627.3,305.5 595.3,293.5 587.3,290.5 587.3,287.5 618.3,285.5 613.3,264.5 638.3,255.5 
		629.3,232.5 624.3,228.5 	"/>
	<polyline class="st0" points="751.3,93.5 742.3,68.5 726.3,40.5 705.3,16.5 689.3,2.5 668.3,11.5 618.3,49.5 551.3,112.5 
		485.3,187.5 416.3,186.5 439.3,212.5 427.3,218.5 405.3,215.5 377.3,208.5 364.3,208.5 384.3,247.5 347.3,274.5 343.3,272.5 
		279.3,263.5 198.3,264.5 161.3,272.5 212.3,310.5 251.3,335.5 190.3,373.5 38.3,454.5 3.3,470.5 98.3,502.5 185.3,521.5 
		255.3,530.5 240.3,607.5 289.3,584.5 318.3,604.5 346.3,613.5 341.3,623.5 310.3,659.5 264.3,698.5 337.3,743.5 361.3,751.5 
		389.4,754.5 390.2,761.5 348.3,806.5 304.3,866.5 263.3,946.5 247,997.1 247.3,1009.5 265.3,999.5 324.3,965.5 375.3,943.5 
		281.6,1064.7 854.9,1065.5 833.3,1037.5 784.3,953.5 741.3,867.5 715.3,792.5 707.6,752.6 708.3,713.5 717.3,678.5 730.3,653.5 
		798.3,694.5 796.3,661.5 775.6,621.8 702,529.6 532.3,324.5 	"/>
	<g>
		<g>
			<path d="M696.5,46.3c-1-1.1-2.5-1.5-3.9-1.8c-1.9-0.4-3.9-0.6-5.8-0.7c-5.5-0.5-11-0.7-16.4-0.8c-2.4-0.1-4.6,2.1-4.5,4.5
				c0.1,2.5,2,4.4,4.5,4.5c5.2,0.1,10.4,0.3,15.6,0.7c0.9,0.1,1.8,0.2,2.7,0.3c0.3,0,1.5,0.2,0.7,0.1c-0.9-0.1,0.3,0,0.5,0.1
				c0.5,0.1,1,0.2,1.5,0.3c0.2,0.1,0.9,0.3,0-0.1c-0.8-0.4-0.5-0.2-0.3-0.1c0.4,0.2-1.1-0.9-0.8-0.6c1.6,1.7,4.8,1.7,6.4,0
				C698.2,50.8,698.2,48.2,696.5,46.3L696.5,46.3z"/>
		</g>
	</g>
	<g>
		<g>
			<path d="M466.7,276.9c-0.9-3.4-2.3-6.8-3.8-10c-1-2.3-2.3-4.4-3.7-6.5c-0.8-1.6-2-2.8-3.5-3.8c-1.3-1.2-2.8-2-4.6-2.4
				c-1.8-0.6-3.6-0.6-5.4-0.2c-1.8,0.1-3.5,0.6-5,1.6c-0.9,0.7-1.8,1.4-2.7,2.1c-1.7,1.7-2.8,3.7-3.5,6c-0.2,1.2-0.3,2.4-0.5,3.6
				c0,2.4,0.6,4.7,1.8,6.8c1.7,2.4,3.1,5,4.3,7.7c-0.5-1.1-0.9-2.1-1.4-3.2c0.8,1.8,1.4,3.6,1.9,5.5c0.4,1.8,1.2,3.3,2.4,4.6
				c1,1.5,2.2,2.6,3.8,3.5c1.5,1,3.2,1.5,5,1.6c1.8,0.4,3.6,0.3,5.4-0.2c1.1-0.5,2.1-0.9,3.2-1.4c2-1.2,3.6-2.8,4.8-4.8
				c0.5-1.1,0.9-2.1,1.4-3.2C467.4,281.7,467.4,279.3,466.7,276.9L466.7,276.9z"/>
		</g>
	</g>
	<g>
		<g>
			<path d="M341.5,451.8c-23.7,6.6-46.8,15.3-68.9,26.1c-2.1,1-5.1,2-5.2,4.8s2.7,4.7,4.7,6.2c5,3.9,10.1,7.5,15.3,11.2
				c5.2,3.7,10.4,7.5,15.6,11.2c4.8,3.5,9.6,7,14.7,10c11.5,6.7,24.6,10.1,38,9.2c1.9-0.1,1.9-3.1,0-3c-11.2,0.7-22.5-1.5-32.5-6.6
				c-5-2.6-9.7-5.7-14.2-8.9c-4.8-3.4-9.7-6.9-14.5-10.4c-4.9-3.5-9.8-7.1-14.7-10.6c-2.4-1.8-4.9-3.6-7.3-5.5
				c-0.7-0.5-2-1.5-2.1-2.4c-0.1-1.1,2.1-1.7,2.8-2.1c10.4-5.1,21.1-9.8,32-14c12.1-4.7,24.5-8.8,37.1-12.3
				C344.2,454.2,343.4,451.3,341.5,451.8L341.5,451.8z"/>
		</g>
	</g>
	<g>
		<g>
			<path d="M357.6,532.9c-6.9,10.5-16.3,19.3-27.2,25.5c-5.3,3.1-11,5.5-16.9,7.3c-3.1,0.9-6.2,1.7-9.3,2.2
				c-3.4,0.6-6.9,0.7-10.1,1.9c-2.8,1-5.4,2.8-6.7,5.5c-1.4,2.9-0.9,6.2,0.9,8.8s4.3,4.7,6.7,6.7c2.4,2,5,4,7.6,5.8
				c10.7,7.4,22.7,12.8,35.3,16c14,3.5,28.7,4.2,43,1.9c-0.6-0.7-1.1-1.5-1.7-2.2c-4.9,10.6-9,21.5-12.1,32.8
				c-1.5,5.5-3,11-3.9,16.6c-0.7,4.3-1.1,8.9,0.5,13c1.8,4.6,5.8,7.3,10.7,7.8c5.4,0.5,10.5-1.9,15.2-4.4
				c11-5.9,21.9-11.8,32.8-17.8c12.4-6.7,24.7-13.4,37.1-20.1c1.7-0.9,0.2-3.5-1.5-2.6c-20.8,11.3-41.7,22.6-62.5,33.9
				c-4.8,2.6-9.7,5.8-15,7.4c-4.4,1.2-9.8,1-12.7-3c-2.4-3.3-2.4-7.8-1.9-11.6c0.6-5.1,2-10.2,3.3-15.2c3.2-12.1,7.4-23.9,12.7-35.2
				c0.6-1.2-0.4-2.4-1.7-2.2c-24.6,4-50.6-1.5-71.7-14.7c-5.3-3.3-10.3-7.1-14.8-11.3c-2-1.9-4.5-4.4-4-7.4s3.5-4.9,6.2-5.7
				c3.1-1,6.4-1.1,9.6-1.7c3-0.5,6-1.3,9-2.2c5.7-1.7,11.2-4.1,16.4-7c11.8-6.6,22-16,29.5-27.3
				C361.3,532.8,358.7,531.3,357.6,532.9L357.6,532.9z"/>
		</g>
	</g>
	<g>
		<g>
			<path d="M340.7,621.3c-17.3,22.5-37.2,43.1-59,61.4c-6.2,5.2-12.6,10.2-19.2,15c-0.9,0.7-1,2,0,2.6c16.1,9.8,32.1,19.8,48.3,29.4
				c15.4,9.1,31.4,17.7,48.8,22.4c9.7,2.6,19.8,4,29.8,3.6c1.9-0.1,1.9-3.1,0-3c-17.8,0.8-35.2-4.2-51.3-11.6
				c-16.4-7.5-31.6-17.3-46.9-26.7c-9.1-5.5-18.2-11.1-27.2-16.6c0,0.9,0,1.7,0,2.6c23.4-17.2,44.9-36.8,63.9-58.7
				c5.3-6.1,10.4-12.4,15.3-18.8c0.5-0.6,0.1-1.7-0.5-2.1C341.9,620.3,341.1,620.6,340.7,621.3L340.7,621.3z"/>
		</g>
	</g>
	<g>
		<g>
			<path d="M389.1,760.8c-13.5,13.1-26.3,27-38.4,41.4s-23.4,29.4-34,44.9s-20.5,31.6-29.5,48.1S270,928.7,262.6,946
				c-3.7,8.8-7.3,17.8-10.5,26.8c-3.5,9.9-6.3,20.1-6.5,30.6c-0.1,2.5,0.1,5.1,0.3,7.6c0.1,1,1.2,2,2.3,1.3
				c15.8-11.3,32.4-21.4,49.5-30.6c17.1-9.3,34.6-17.8,52.3-25.9c9.9-4.6,19.9-9.1,29.9-13.6c-0.6-0.8-1.2-1.6-1.8-2.4
				c-13.5,15.5-26.6,31.2-39.4,47.3c-12.7,15.9-25.1,32.1-37.1,48.5c-6.9,9.4-13.6,18.8-20.3,28.3c-1.1,1.6,1.5,3.1,2.6,1.5
				c11.6-16.7,23.6-33.1,35.9-49.3c12.4-16.2,25-32.2,38.1-47.9c7.3-8.9,14.8-17.6,22.3-26.3c1.2-1.3-0.3-3.1-1.8-2.4
				c-17.7,8-35.5,16-53,24.5s-34.7,17.6-51.3,27.6c-9.3,5.6-18.5,11.6-27.3,18c0.8,0.4,1.5,0.9,2.3,1.3c-1.1-10.4,0.8-20.7,3.8-30.7
				c2.9-9.4,6.5-18.5,10.3-27.6c7.1-17.3,15.1-34.2,23.9-50.7c8.7-16.4,18.3-32.4,28.6-47.8c10.4-15.6,21.5-30.6,33.4-45.1
				c11.8-14.4,24.4-28.3,37.6-41.5c1.6-1.6,3.3-3.3,4.9-4.9C392.6,761.6,390.5,759.4,389.1,760.8L389.1,760.8z"/>
		</g>
	</g>
	<g>
		<g>
			<path d="M450.2,1027.3c3.3-20.9,7.5-41.7,12.7-62.2c5.1-20.5,11.2-40.9,18.1-60.9c3.9-11.3,8.1-22.4,12.6-33.5
				c0.4-0.9-0.6-1.9-1.4-1.9c-19.9,0.2-39.7,4.4-57.9,12.3c-5.2,2.3-10.3,4.8-15.3,7.7c0.7,0.6,1.5,1.1,2.2,1.7
				c6.7-26.9,13.8-53.6,23.6-79.6c9.3-24.7,20.5-48.8,33.4-71.8c7.3-12.9,15.1-25.6,23.4-37.9c1.1-1.6-1.5-3.1-2.6-1.5
				c-14.9,22-28.1,45.1-39.6,69.1c-11.3,23.8-20.9,48.5-28.6,73.8c-4.7,15.6-8.6,31.4-12.6,47.1c-0.3,1.3,1.1,2.4,2.2,1.7
				c16.9-9.7,35.8-16.1,55.2-18.5c5.5-0.7,11-1,16.5-1.1c-0.5-0.6-1-1.3-1.4-1.9c-7.9,19.6-15,39.6-21.1,59.9
				c-6.2,20.3-11.4,40.8-15.8,61.5c-2.4,11.7-4.6,23.4-6.5,35.2C447,1028.4,449.9,1029.2,450.2,1027.3L450.2,1027.3z"/>
		</g>
	</g>
	<g>
		<g>
			<path d="M724,663.2c-13,23-18.3,49.5-17.9,75.7c0.4,28.1,7.2,55.7,16.3,82.1c9.3,26.7,20.5,52.8,32.5,78.4
				c11.9,25.4,24.8,50.2,38.7,74.6c14,24.4,28.9,48.2,44.9,71.4c2,2.8,3.9,5.7,5.9,8.5c1.1,1.6,3.7,0.1,2.6-1.5
				c-16-22.7-31-46.1-45.1-70c-14-23.8-27-48.3-39-73.2c-12.1-25.1-23.4-50.8-33.2-76.9c-9.9-26.5-18.1-54-20.1-82.3
				c-1.9-26,1.4-52.9,12.6-76.7c1.4-2.9,2.9-5.8,4.5-8.6C727.5,663,725,661.5,724,663.2L724,663.2z"/>
		</g>
	</g>
	<g>
		<g>
			<path d="M500.5,515.4c38.6,23.3,77.2,46.6,115.7,69.9s77.2,46.6,115.7,69.9c21.9,13.2,43.7,26.4,65.6,39.6
				c1.1,0.6,2.1-0.2,2.3-1.3c2.6-26.3-8.4-51-22.7-72.4c-15.9-23.9-35.4-45.4-53.7-67.5c-40.6-49-81.1-98.1-121.7-147.1
				c-22.8-27.5-45.5-55-68.3-82.5c0,0.7,0,1.4,0,2.1c28.4-30,56.7-60,85.1-90c28.5-30.1,57-60.3,85.5-90.4
				c16-16.9,32.1-33.9,48.1-50.8c1.3-1.4-0.8-3.5-2.1-2.1c-28.4,30-56.7,60-85.1,90c-28.5,30.1-57,60.3-85.5,90.4
				c-16,16.9-32.1,33.9-48.1,50.8c-0.6,0.6-0.5,1.5,0,2.1c39.9,48.3,79.8,96.5,119.8,144.8c19.8,24,39.7,48,59.5,71.9
				c10,12.1,20.1,24.3,30.1,36.4c9.1,11,18.3,21.9,26.7,33.4c17.2,23.5,32.3,50.9,29.3,80.9c0.8-0.4,1.5-0.9,2.3-1.3
				c-38.6-23.3-77.2-46.6-115.7-69.9s-77.2-46.6-115.7-69.9c-21.9-13.2-43.7-26.4-65.6-39.6C500.4,511.8,498.9,514.4,500.5,515.4
				L500.5,515.4z"/>
		</g>
	</g>
	<g>
		<g>
			<path d="M746.1,103.2c-6.6,33.8-13.2,67.6-19.8,101.4s-13.2,67.6-19.8,101.4c-1.6,7.9-3.3,15.9-4,24c-0.6,7.8,0.2,15.6,2.1,23.2
				c3.8,15.5,10.7,30.3,15.9,45.4c10.5,30.7,18.4,62.3,25,94c6.5,31.9,11.7,64.1,16.7,96.3c0.6,4,1.2,8,1.9,12.1
				c0.3,1.9,3.2,1.1,2.9-0.8c-4.9-31.9-9.8-63.8-16-95.5c-6.1-31.7-13.5-63.2-23.3-94.1c-4.8-15.2-10.8-30-16.1-45.1
				c-2.7-7.6-5-15.4-5.9-23.5c-0.8-8.2,0.2-16.2,1.7-24.3c6.2-33.6,13.1-67.1,19.7-100.7c6.5-33.5,13.1-67,19.7-100.4
				c0.8-4.2,1.7-8.5,2.5-12.7C749.3,102.1,746.5,101.3,746.1,103.2L746.1,103.2z"/>
		</g>
	</g>
	<g>
		<g>
			<path d="M751.1,85.9c-9.2-26-24-49.8-43.2-69.6c-5.4-5.6-11.2-10.9-17.3-15.8c-0.4-0.3-0.9-0.6-1.5-0.4
				c-16.5,6.4-31.3,16.3-45.3,27.1c-14.3,11-28.1,22.8-41.6,34.8c-27.1,24.1-52.8,49.7-77,76.7c-13.6,15.2-26.8,30.9-39.4,47
				c0.4-0.1,0.7-0.3,1.1-0.4c-24.1-0.4-48.3-0.7-72.4-1.1c-1.3,0-1.9,1.6-1.1,2.6c8.3,8.8,16.6,17.5,24.9,26.3c0-0.7,0-1.4,0-2.1
				c-8.9,8.4-22.6,6.6-33.3,3.4c-13.2-3.9-26.8-10.6-40.8-6.6c-1,0.3-1.3,1.3-0.9,2.2c5.7,11.3,11.4,22.5,17,33.8
				c0.9,1.7,3.5,0.2,2.6-1.5c-5.7-11.3-11.4-22.5-17-33.8c-0.3,0.7-0.6,1.5-0.9,2.2c14.7-4.1,28.7,4.1,42.6,7.5
				c11.1,2.8,24.1,3.3,32.9-5.1c0.6-0.6,0.5-1.5,0-2.1c-8.3-8.8-16.6-17.5-24.9-26.3c-0.4,0.9-0.7,1.7-1.1,2.6
				c12.5,0.2,24.9,0.4,37.4,0.6c6.1,0.1,12.2,0.2,18.3,0.3c2.8,0,5.6,0.1,8.4,0.1c1.5,0,3.1,0,4.6,0.1c1.3,0,3.4,0.5,4.6-0.1
				c1-0.5,1.8-2.1,2.5-3c0.9-1.1,1.7-2.2,2.6-3.3c1.7-2.2,3.5-4.4,5.2-6.5c3.5-4.3,7.1-8.6,10.7-12.9c7.2-8.5,14.5-16.9,22-25.2
				c30.1-33.3,62.5-64.4,97-93.1c19.1-15.9,38.9-32,62.3-41.1c-0.5-0.1-1-0.3-1.5-0.4c21.1,17.1,38.5,38.6,50.7,62.9
				c3.5,6.9,6.5,14,9.1,21.2C748.8,88.5,751.7,87.7,751.1,85.9L751.1,85.9z"/>
		</g>
	</g>
	<g>
		<g>
			<path d="M249.3,332.2c-24.3-13.8-47.5-29.4-69.3-46.8c-6.2-4.9-12.3-10-18.3-15.2c-0.2,0.8-0.4,1.7-0.7,2.5
				c23.5-4.5,47.3-7.2,71.3-8.1c23.7-0.9,47.5,0.1,71.1,2.7c13.4,1.5,26.8,3.7,40,6.3c1.9,0.4,2.7-2.5,0.8-2.9
				c-23.6-4.8-47.5-7.8-71.5-8.9c-24.1-1.2-48.3-0.5-72.3,2c-13.5,1.4-26.8,3.4-40.1,5.9c-1.1,0.2-1.5,1.8-0.7,2.5
				c21.3,18.5,44,35.3,67.8,50.3c6.7,4.2,13.5,8.3,20.4,12.2C249.5,335.7,251,333.1,249.3,332.2L249.3,332.2z"/>
		</g>
	</g>
	<g>
		<g>
			<path d="M557.4,322.5c0.5-3.2,1-6.6,3-9.2c2.1-2.7,5.1-3,8.3-2.7c7.4,0.7,14.7,1.7,22.1,2.6c1.1,0.1,1.6-1.1,1.4-1.9
				c-1.2-7.9-2.3-15.9-3.5-23.8c-0.5,0.6-1,1.3-1.4,1.9c10.2-0.9,20.3-1.9,30.5-2.8c0.8-0.1,1.5-0.6,1.5-1.5
				c-0.2-7.5-2.1-14.8-5.5-21.5c-0.3,0.7-0.6,1.5-0.9,2.2c8.5-2.7,17-5.4,25.5-8c0.8-0.3,1.2-1,1-1.8c-1.5-8.7-4.7-17.1-9.6-24.5
				c-1.1-1.6-3.7-0.1-2.6,1.5c4.7,7.2,7.9,15.3,9.3,23.8c0.3-0.6,0.7-1.2,1-1.8c-8.5,2.7-17,5.4-25.5,8c-1,0.3-1.3,1.3-0.9,2.2
				c3.2,6.2,4.9,13,5.1,20c0.5-0.5,1-1,1.5-1.5c-10.2,0.9-20.3,1.9-30.5,2.8c-1.1,0.1-1.6,0.9-1.4,1.9c1.2,7.9,2.3,15.9,3.5,23.8
				c0.5-0.6,1-1.3,1.4-1.9c-4.1-0.5-8.1-0.9-12.2-1.4c-4-0.5-8.1-1.3-12.1-1.3c-3.5,0-6.5,1.4-8.6,4.2c-2.2,2.9-2.9,6.6-3.4,10.1
				C554.2,323.6,557.1,324.4,557.4,322.5L557.4,322.5z"/>
		</g>
	</g>
	<g>
		<g>
			<path d="M563,337c6.8-0.8,13.5-1.6,20.3-2.4c-0.5-0.5-1-1-1.5-1.5c0.7,6.2,1.5,12.4,2.2,18.6c0.1,1,0.9,1.7,1.9,1.4
				c4-0.9,8.1-1.8,12.1-2.7c-0.6-0.3-1.2-0.7-1.8-1c3.5,12.5,7,25.1,10.5,37.6c0.2,0.6,0.8,1.2,1.4,1.1c8-1,16.1-2,24.1-3
				c-0.5-0.5-1-1-1.5-1.5c-2,15.7-3.9,31.9,0.8,47.3c1.4,4.5,3.1,8.8,4.7,13.2c0.7,1.8,3.6,1,2.9-0.8c-1.8-4.8-3.7-9.6-5.1-14.6
				c-1.4-4.9-2.1-9.9-2.3-14.9c-0.5-10.1,0.8-20.2,2.1-30.2c0.1-0.7-0.8-1.6-1.5-1.5c-8,1-16.1,2-24.1,3c0.5,0.4,1,0.7,1.4,1.1
				c-3.5-12.5-7-25.1-10.5-37.6c-0.2-0.8-1-1.2-1.8-1c-4,0.9-8.1,1.8-12.1,2.7c0.6,0.5,1.3,1,1.9,1.4c-0.7-6.2-1.5-12.4-2.2-18.6
				c-0.1-0.7-0.6-1.6-1.5-1.5c-6.8,0.8-13.5,1.6-20.3,2.4C561.1,334.2,561,337.2,563,337L563,337z"/>
		</g>
	</g>
	<g>
		<g>
			<path d="M683.8,490.6c2.4-18.7,4.8-37.4,5.3-56.2c0.5-17.6-0.8-35.4-5.1-52.5c-3.8-14.9-10.1-29.1-19-41.6
				c-8.2-11.6-18.3-21.7-29.8-30s-24.3-14.7-37.9-18.6c-1.7-0.5-3.3-0.9-5-1.3c-1.9-0.5-2.7,2.4-0.8,2.9c13.5,3.3,26.3,9,37.9,16.7
				c11.6,7.7,21.9,17.3,30.3,28.3c9,11.8,15.6,25,19.8,39.2c4.9,16.6,6.6,33.9,6.6,51.1c-0.1,18.5-2.2,36.9-4.5,55.3
				c-0.3,2.3-0.6,4.6-0.9,6.9C680.6,492.5,683.6,492.5,683.8,490.6L683.8,490.6z"/>
		</g>
	</g>
	<g>
		<g>
			<path d="M380.9,248.2c-23.3,16.6-46.8,32.8-70.7,48.5c-23.8,15.7-47.8,31-72.1,45.8c-24.4,14.9-49.1,29.3-74,43.3
				c-24.8,13.9-49.9,27.5-75.2,40.5c-25.4,13.1-51,25.8-76.9,37.9c-3.2,1.5-6.4,3-9.5,4.5c-1.3,0.6-0.7,2.3,0.4,2.7
				c31.3,12.7,63.4,23.5,96,32.4c32.7,8.9,66,15.8,99.5,20.7c18.7,2.7,37.5,4.8,56.4,6.3c-0.5-0.6-1-1.3-1.4-1.9
				c-4.8,26.1-9.6,52.2-14.4,78.2c-0.2,1.3,1,2.3,2.2,1.7c14.7-6.8,29.4-13.6,44.2-20.4c1.8-0.8,0.2-3.4-1.5-2.6
				c-14.7,6.8-29.4,13.6-44.2,20.4c0.7,0.6,1.5,1.1,2.2,1.7c4.8-26.1,9.6-52.2,14.4-78.2c0.2-1-0.4-1.8-1.4-1.9
				c-33.7-2.6-67.2-7.3-100.3-14c-33-6.6-65.6-15.3-97.6-25.8c-17.9-5.9-35.7-12.4-53.2-19.5c0.1,0.9,0.2,1.8,0.4,2.7
				c25.9-12.1,51.6-24.6,77.1-37.6c25.4-12.9,50.5-26.3,75.4-40.2c25-13.9,49.7-28.2,74.2-43c24.4-14.7,48.5-29.9,72.3-45.5
				c23.9-15.6,47.6-31.7,70.9-48.2c2.9-2,5.7-4.1,8.6-6.1C383.9,249.7,382.4,247.1,380.9,248.2L380.9,248.2z"/>
		</g>
	</g>
</g>
</svg>
