<?xml version="1.0" encoding="utf-8"?><!-- Generator: Adobe Illustrator 25.3.1, SVG Export Plug-In . SVG Version: 6.00 Build 0)--><svg version="1.1" id="Ebene_3" xmlns="http://www.w3.org/2000/svg" xmlns:xlink="http://www.w3.org/1999/xlink" x="0px" y="0px"	 viewBox="0 0 1029 1066" style="enable-background:new 0 0 1029 1066;" xml:space="preserve"><style type="text/css">	.st0{fill:#B3B3B3;}	.st1{fill:#333333;}	.st2{fill:#FFFFFF;}</style><polyline class="st0" points="677.5,501.5 680.5,489.5 686.5,436.5 682,384.4 666.5,346.5 639.5,315.5 608.5,297.5 586.5,290.5 	588.5,311.5 562.5,309.5 555.5,314.5 553.5,322.5 544.5,340.5 560.5,335.5 581.5,333.5 583.5,351.5 595.9,349.4 606.5,387.5 	629.5,384.5 627.5,413.5 638.5,454.5 "/><polygon points="623.5,228.5 627.5,232.5 635.5,255.5 610.5,264.5 616.5,284.5 584.5,287.5 589.5,312.5 561.5,308.5 554.5,318.5 	553.5,323.5 545.5,339.5 560.5,335.5 580.5,334.5 583.5,352.5 595.2,350 605.5,387.5 630.4,383.7 628.5,421.5 636.5,444.5 	638.5,454.5 530.5,325.5 "/><polygon points="553.5,321.5 562.5,336.5 545.5,339.5 "/><polyline class="st1" points="746.5,98.5 700.9,333.1 709.5,371.5 733.5,438.5 746.5,504.2 764.5,607.5 676.5,502.5 680.5,489.5 	686.5,428.7 680.5,377.5 661.5,338.5 625.5,305.5 593.5,293.5 585.5,290.5 585.5,287.5 616.5,285.5 611.5,264.5 636.5,255.5 	627.5,232.5 622.5,228.5 "/><polyline class="st2" points="749.5,93.5 740.5,68.5 724.5,40.5 703.5,16.5 687.5,2.5 666.5,11.5 616.5,49.5 549.5,112.5 	483.5,187.5 414.5,186.5 437.5,212.5 425.5,218.5 403.5,215.5 375.5,208.5 362.5,208.5 382.5,247.5 345.5,274.5 341.5,272.5 	277.5,263.5 196.5,264.5 159.5,272.5 210.5,310.5 249.5,335.5 188.5,373.5 36.5,454.5 1.5,470.5 96.5,502.5 183.5,521.5 	253.5,530.5 238.5,607.5 287.5,584.5 316.5,604.5 344.5,613.5 339.5,623.5 308.5,659.5 262.5,698.5 335.5,743.5 359.5,751.5 	387.6,754.5 388.4,761.5 346.5,806.5 302.5,866.5 261.5,946.5 245.2,997.1 245.5,1009.5 263.5,999.5 322.5,965.5 373.5,943.5 	279.8,1064.7 853.1,1065.5 831.5,1037.5 782.5,953.5 739.5,867.5 713.5,792.5 705.8,752.6 706.5,713.5 715.5,678.5 728.5,653.5 	796.5,694.5 794.5,661.5 773.8,621.8 700.2,529.6 530.5,324.5 "/><g>	<g>		<path d="M694.7,46.3c-1-1.1-2.5-1.5-3.9-1.8c-1.9-0.4-3.9-0.6-5.8-0.7c-5.5-0.5-11-0.7-16.4-0.8c-2.4-0.1-4.6,2.1-4.5,4.5			c0.1,2.5,2,4.4,4.5,4.5c5.2,0.1,10.4,0.3,15.6,0.7c0.9,0.1,1.8,0.2,2.7,0.3c0.3,0,1.5,0.2,0.7,0.1c-0.9-0.1,0.3,0,0.5,0.1			c0.5,0.1,1,0.2,1.5,0.3c0.2,0.1,0.9,0.3,0-0.1c-0.8-0.4-0.5-0.2-0.3-0.1c0.4,0.2-1.1-0.9-0.8-0.6c1.6,1.7,4.8,1.7,6.4,0			C696.4,50.8,696.4,48.2,694.7,46.3L694.7,46.3z"/>	</g></g><g>	<g>		<path d="M464.9,276.9c-0.9-3.4-2.3-6.8-3.8-10c-1-2.3-2.3-4.4-3.7-6.5c-0.8-1.6-2-2.8-3.5-3.8c-1.3-1.2-2.8-2-4.6-2.4			c-1.8-0.6-3.6-0.6-5.4-0.2c-1.8,0.1-3.5,0.6-5,1.6c-0.9,0.7-1.8,1.4-2.7,2.1c-1.7,1.7-2.8,3.7-3.5,6c-0.2,1.2-0.3,2.4-0.5,3.6			c0,2.4,0.6,4.7,1.8,6.8c1.7,2.4,3.1,5,4.3,7.7c-0.5-1.1-0.9-2.1-1.4-3.2c0.8,1.8,1.4,3.6,1.9,5.5c0.4,1.8,1.2,3.3,2.4,4.6			c1,1.5,2.2,2.6,3.8,3.5c1.5,1,3.2,1.5,5,1.6c1.8,0.4,3.6,0.3,5.4-0.2c1.1-0.5,2.1-0.9,3.2-1.4c2-1.2,3.6-2.8,4.8-4.8			c0.5-1.1,0.9-2.1,1.4-3.2C465.6,281.7,465.6,279.3,464.9,276.9L464.9,276.9z"/>	</g></g><g>	<g>		<path d="M339.7,451.8c-23.7,6.6-46.8,15.3-68.9,26.1c-2.1,1-5.1,2-5.2,4.8s2.7,4.7,4.7,6.2c5,3.9,10.1,7.5,15.3,11.2			c5.2,3.7,10.4,7.5,15.6,11.2c4.8,3.5,9.6,7,14.7,10c11.5,6.7,24.6,10.1,38,9.2c1.9-0.1,1.9-3.1,0-3c-11.2,0.7-22.5-1.5-32.5-6.6			c-5-2.6-9.7-5.7-14.2-8.9c-4.8-3.4-9.7-6.9-14.5-10.4c-4.9-3.5-9.8-7.1-14.7-10.6c-2.4-1.8-4.9-3.6-7.3-5.5			c-0.7-0.5-2-1.5-2.1-2.4c-0.1-1.1,2.1-1.7,2.8-2.1c10.4-5.1,21.1-9.8,32-14c12.1-4.7,24.5-8.8,37.1-12.3			C342.4,454.2,341.6,451.3,339.7,451.8L339.7,451.8z"/>	</g></g><g>	<g>		<path d="M355.8,532.9c-6.9,10.5-16.3,19.3-27.2,25.5c-5.3,3.1-11,5.5-16.9,7.3c-3.1,0.9-6.2,1.7-9.3,2.2			c-3.4,0.6-6.9,0.7-10.1,1.9c-2.8,1-5.4,2.8-6.7,5.5c-1.4,2.9-0.9,6.2,0.9,8.8s4.3,4.7,6.7,6.7c2.4,2,5,4,7.6,5.8			c10.7,7.4,22.7,12.8,35.3,16c14,3.5,28.7,4.2,43,1.9c-0.6-0.7-1.1-1.5-1.7-2.2c-4.9,10.6-9,21.5-12.1,32.8c-1.5,5.5-3,11-3.9,16.6			c-0.7,4.3-1.1,8.9,0.5,13c1.8,4.6,5.8,7.3,10.7,7.8c5.4,0.5,10.5-1.9,15.2-4.4c11-5.9,21.9-11.8,32.8-17.8			c12.4-6.7,24.7-13.4,37.1-20.1c1.7-0.9,0.2-3.5-1.5-2.6c-20.8,11.3-41.7,22.6-62.5,33.9c-4.8,2.6-9.7,5.8-15,7.4			c-4.4,1.2-9.8,1-12.7-3c-2.4-3.3-2.4-7.8-1.9-11.6c0.6-5.1,2-10.2,3.3-15.2c3.2-12.1,7.4-23.9,12.7-35.2c0.6-1.2-0.4-2.4-1.7-2.2			c-24.6,4-50.6-1.5-71.7-14.7c-5.3-3.3-10.3-7.1-14.8-11.3c-2-1.9-4.5-4.4-4-7.4s3.5-4.9,6.2-5.7c3.1-1,6.4-1.1,9.6-1.7			c3-0.5,6-1.3,9-2.2c5.7-1.7,11.2-4.1,16.4-7c11.8-6.6,22-16,29.5-27.3C359.5,532.8,356.9,531.3,355.8,532.9L355.8,532.9z"/>	</g></g><g>	<g>		<path d="M338.9,621.3c-17.3,22.5-37.2,43.1-59,61.4c-6.2,5.2-12.6,10.2-19.2,15c-0.9,0.7-1,2,0,2.6c16.1,9.8,32.1,19.8,48.3,29.4			c15.4,9.1,31.4,17.7,48.8,22.4c9.7,2.6,19.8,4,29.8,3.6c1.9-0.1,1.9-3.1,0-3c-17.8,0.8-35.2-4.2-51.3-11.6			c-16.4-7.5-31.6-17.3-46.9-26.7c-9.1-5.5-18.2-11.1-27.2-16.6c0,0.9,0,1.7,0,2.6c23.4-17.2,44.9-36.8,63.9-58.7			c5.3-6.1,10.4-12.4,15.3-18.8c0.5-0.6,0.1-1.7-0.5-2.1C340.1,620.3,339.3,620.6,338.9,621.3L338.9,621.3z"/>	</g></g><g>	<g>		<path d="M387.3,760.8c-13.5,13.1-26.3,27-38.4,41.4s-23.4,29.4-34,44.9s-20.5,31.6-29.5,48.1s-17.2,33.5-24.6,50.8			c-3.7,8.8-7.3,17.8-10.5,26.8c-3.5,9.9-6.3,20.1-6.5,30.6c-0.1,2.5,0.1,5.1,0.3,7.6c0.1,1,1.2,2,2.3,1.3			c15.8-11.3,32.4-21.4,49.5-30.6c17.1-9.3,34.6-17.8,52.3-25.9c9.9-4.6,19.9-9.1,29.9-13.6c-0.6-0.8-1.2-1.6-1.8-2.4			c-13.5,15.5-26.6,31.2-39.4,47.3c-12.7,15.9-25.1,32.1-37.1,48.5c-6.9,9.4-13.6,18.8-20.3,28.3c-1.1,1.6,1.5,3.1,2.6,1.5			c11.6-16.7,23.6-33.1,35.9-49.3c12.4-16.2,25-32.2,38.1-47.9c7.3-8.9,14.8-17.6,22.3-26.3c1.2-1.3-0.3-3.1-1.8-2.4			c-17.7,8-35.5,16-53,24.5s-34.7,17.6-51.3,27.6c-9.3,5.6-18.5,11.6-27.3,18c0.8,0.4,1.5,0.9,2.3,1.3c-1.1-10.4,0.8-20.7,3.8-30.7			c2.9-9.4,6.5-18.5,10.3-27.6c7.1-17.3,15.1-34.2,23.9-50.7c8.7-16.4,18.3-32.4,28.6-47.8c10.4-15.6,21.5-30.6,33.4-45.1			c11.8-14.4,24.4-28.3,37.6-41.5c1.6-1.6,3.3-3.3,4.9-4.9C390.8,761.6,388.7,759.4,387.3,760.8L387.3,760.8z"/>	</g></g><g>	<g>		<path d="M448.4,1027.3c3.3-20.9,7.5-41.7,12.7-62.2c5.1-20.5,11.2-40.9,18.1-60.9c3.9-11.3,8.1-22.4,12.6-33.5			c0.4-0.9-0.6-1.9-1.4-1.9c-19.9,0.2-39.7,4.4-57.9,12.3c-5.2,2.3-10.3,4.8-15.3,7.7c0.7,0.6,1.5,1.1,2.2,1.7			c6.7-26.9,13.8-53.6,23.6-79.6c9.3-24.7,20.5-48.8,33.4-71.8c7.3-12.9,15.1-25.6,23.4-37.9c1.1-1.6-1.5-3.1-2.6-1.5			c-14.9,22-28.1,45.1-39.6,69.1c-11.3,23.8-20.9,48.5-28.6,73.8c-4.7,15.6-8.6,31.4-12.6,47.1c-0.3,1.3,1.1,2.4,2.2,1.7			c16.9-9.7,35.8-16.1,55.2-18.5c5.5-0.7,11-1,16.5-1.1c-0.5-0.6-1-1.3-1.4-1.9c-7.9,19.6-15,39.6-21.1,59.9			c-6.2,20.3-11.4,40.8-15.8,61.5c-2.4,11.7-4.6,23.4-6.5,35.2C445.2,1028.4,448.1,1029.2,448.4,1027.3L448.4,1027.3z"/>	</g></g><g>	<g>		<path d="M722.2,663.2c-13,23-18.3,49.5-17.9,75.7c0.4,28.1,7.2,55.7,16.3,82.1c9.3,26.7,20.5,52.8,32.5,78.4			c11.9,25.4,24.8,50.2,38.7,74.6c14,24.4,28.9,48.2,44.9,71.4c2,2.8,3.9,5.7,5.9,8.5c1.1,1.6,3.7,0.1,2.6-1.5			c-16-22.7-31-46.1-45.1-70c-14-23.8-27-48.3-39-73.2c-12.1-25.1-23.4-50.8-33.2-76.9c-9.9-26.5-18.1-54-20.1-82.3			c-1.9-26,1.4-52.9,12.6-76.7c1.4-2.9,2.9-5.8,4.5-8.6C725.7,663,723.2,661.5,722.2,663.2L722.2,663.2z"/>	</g></g><g>	<g>		<path d="M498.7,515.4c38.6,23.3,77.2,46.6,115.7,69.9s77.2,46.6,115.7,69.9c21.9,13.2,43.7,26.4,65.6,39.6			c1.1,0.6,2.1-0.2,2.3-1.3c2.6-26.3-8.4-51-22.7-72.4c-15.9-23.9-35.4-45.4-53.7-67.5c-40.6-49-81.1-98.1-121.7-147.1			c-22.8-27.5-45.5-55-68.3-82.5c0,0.7,0,1.4,0,2.1c28.4-30,56.7-60,85.1-90c28.5-30.1,57-60.3,85.5-90.4			c16-16.9,32.1-33.9,48.1-50.8c1.3-1.4-0.8-3.5-2.1-2.1c-28.4,30-56.7,60-85.1,90c-28.5,30.1-57,60.3-85.5,90.4			c-16,16.9-32.1,33.9-48.1,50.8c-0.6,0.6-0.5,1.5,0,2.1c39.9,48.3,79.8,96.5,119.8,144.8c19.8,24,39.7,48,59.5,71.9			c10,12.1,20.1,24.3,30.1,36.4c9.1,11,18.3,21.9,26.7,33.4c17.2,23.5,32.3,50.9,29.3,80.9c0.8-0.4,1.5-0.9,2.3-1.3			c-38.6-23.3-77.2-46.6-115.7-69.9s-77.2-46.6-115.7-69.9c-21.9-13.2-43.7-26.4-65.6-39.6C498.6,511.8,497.1,514.4,498.7,515.4			L498.7,515.4z"/>	</g></g><g>	<g>		<path d="M744.3,103.2c-6.6,33.8-13.2,67.6-19.8,101.4s-13.2,67.6-19.8,101.4c-1.6,7.9-3.3,15.9-4,24c-0.6,7.8,0.2,15.6,2.1,23.2			c3.8,15.5,10.7,30.3,15.9,45.4c10.5,30.7,18.4,62.3,25,94c6.5,31.9,11.7,64.1,16.7,96.3c0.6,4,1.2,8,1.9,12.1			c0.3,1.9,3.2,1.1,2.9-0.8c-4.9-31.9-9.8-63.8-16-95.5c-6.1-31.7-13.5-63.2-23.3-94.1c-4.8-15.2-10.8-30-16.1-45.1			c-2.7-7.6-5-15.4-5.9-23.5c-0.8-8.2,0.2-16.2,1.7-24.3c6.2-33.6,13.1-67.1,19.7-100.7c6.5-33.5,13.1-67,19.7-100.4			c0.8-4.2,1.7-8.5,2.5-12.7C747.5,102.1,744.7,101.3,744.3,103.2L744.3,103.2z"/>	</g></g><g>	<g>		<path d="M749.3,85.9c-9.2-26-24-49.8-43.2-69.6c-5.4-5.6-11.2-10.9-17.3-15.8c-0.4-0.3-0.9-0.6-1.5-0.4			C670.8,6.5,656,16.4,642,27.2c-14.3,11-28.1,22.8-41.6,34.8c-27.1,24.1-52.8,49.7-77,76.7c-13.6,15.2-26.8,30.9-39.4,47			c0.4-0.1,0.7-0.3,1.1-0.4c-24.1-0.4-48.3-0.7-72.4-1.1c-1.3,0-1.9,1.6-1.1,2.6c8.3,8.8,16.6,17.5,24.9,26.3c0-0.7,0-1.4,0-2.1			c-8.9,8.4-22.6,6.6-33.3,3.4c-13.2-3.9-26.8-10.6-40.8-6.6c-1,0.3-1.3,1.3-0.9,2.2c5.7,11.3,11.4,22.5,17,33.8			c0.9,1.7,3.5,0.2,2.6-1.5c-5.7-11.3-11.4-22.5-17-33.8c-0.3,0.7-0.6,1.5-0.9,2.2c14.7-4.1,28.7,4.1,42.6,7.5			c11.1,2.8,24.1,3.3,32.9-5.1c0.6-0.6,0.5-1.5,0-2.1c-8.3-8.8-16.6-17.5-24.9-26.3c-0.4,0.9-0.7,1.7-1.1,2.6			c12.5,0.2,24.9,0.4,37.4,0.6c6.1,0.1,12.2,0.2,18.3,0.3c2.8,0,5.6,0.1,8.4,0.1c1.5,0,3.1,0,4.6,0.1c1.3,0,3.4,0.5,4.6-0.1			c1-0.5,1.8-2.1,2.5-3c0.9-1.1,1.7-2.2,2.6-3.3c1.7-2.2,3.5-4.4,5.2-6.5c3.5-4.3,7.1-8.6,10.7-12.9c7.2-8.5,14.5-16.9,22-25.2			c30.1-33.3,62.5-64.4,97-93.1c19.1-15.9,38.9-32,62.3-41.1c-0.5-0.1-1-0.3-1.5-0.4c21.1,17.1,38.5,38.6,50.7,62.9			c3.5,6.9,6.5,14,9.1,21.2C747,88.5,749.9,87.7,749.3,85.9L749.3,85.9z"/>	</g></g><g>	<g>		<path d="M247.5,332.2c-24.3-13.8-47.5-29.4-69.3-46.8c-6.2-4.9-12.3-10-18.3-15.2c-0.2,0.8-0.4,1.7-0.7,2.5			c23.5-4.5,47.3-7.2,71.3-8.1c23.7-0.9,47.5,0.1,71.1,2.7c13.4,1.5,26.8,3.7,40,6.3c1.9,0.4,2.7-2.5,0.8-2.9			c-23.6-4.8-47.5-7.8-71.5-8.9c-24.1-1.2-48.3-0.5-72.3,2c-13.5,1.4-26.8,3.4-40.1,5.9c-1.1,0.2-1.5,1.8-0.7,2.5			c21.3,18.5,44,35.3,67.8,50.3c6.7,4.2,13.5,8.3,20.4,12.2C247.7,335.7,249.2,333.1,247.5,332.2L247.5,332.2z"/>	</g></g><g>	<g>		<path d="M555.6,322.5c0.5-3.2,1-6.6,3-9.2c2.1-2.7,5.1-3,8.3-2.7c7.4,0.7,14.7,1.7,22.1,2.6c1.1,0.1,1.6-1.1,1.4-1.9			c-1.2-7.9-2.3-15.9-3.5-23.8c-0.5,0.6-1,1.3-1.4,1.9c10.2-0.9,20.3-1.9,30.5-2.8c0.8-0.1,1.5-0.6,1.5-1.5			c-0.2-7.5-2.1-14.8-5.5-21.5c-0.3,0.7-0.6,1.5-0.9,2.2c8.5-2.7,17-5.4,25.5-8c0.8-0.3,1.2-1,1-1.8c-1.5-8.7-4.7-17.1-9.6-24.5			c-1.1-1.6-3.7-0.1-2.6,1.5c4.7,7.2,7.9,15.3,9.3,23.8c0.3-0.6,0.7-1.2,1-1.8c-8.5,2.7-17,5.4-25.5,8c-1,0.3-1.3,1.3-0.9,2.2			c3.2,6.2,4.9,13,5.1,20c0.5-0.5,1-1,1.5-1.5c-10.2,0.9-20.3,1.9-30.5,2.8c-1.1,0.1-1.6,0.9-1.4,1.9c1.2,7.9,2.3,15.9,3.5,23.8			c0.5-0.6,1-1.3,1.4-1.9c-4.1-0.5-8.1-0.9-12.2-1.4c-4-0.5-8.1-1.3-12.1-1.3c-3.5,0-6.5,1.4-8.6,4.2c-2.2,2.9-2.9,6.6-3.4,10.1			C552.4,323.6,555.3,324.4,555.6,322.5L555.6,322.5z"/>	</g></g><g>	<g>		<path d="M561.2,337c6.8-0.8,13.5-1.6,20.3-2.4c-0.5-0.5-1-1-1.5-1.5c0.7,6.2,1.5,12.4,2.2,18.6c0.1,1,0.9,1.7,1.9,1.4			c4-0.9,8.1-1.8,12.1-2.7c-0.6-0.3-1.2-0.7-1.8-1c3.5,12.5,7,25.1,10.5,37.6c0.2,0.6,0.8,1.2,1.4,1.1c8-1,16.1-2,24.1-3			c-0.5-0.5-1-1-1.5-1.5c-2,15.7-3.9,31.9,0.8,47.3c1.4,4.5,3.1,8.8,4.7,13.2c0.7,1.8,3.6,1,2.9-0.8c-1.8-4.8-3.7-9.6-5.1-14.6			c-1.4-4.9-2.1-9.9-2.3-14.9c-0.5-10.1,0.8-20.2,2.1-30.2c0.1-0.7-0.8-1.6-1.5-1.5c-8,1-16.1,2-24.1,3c0.5,0.4,1,0.7,1.4,1.1			c-3.5-12.5-7-25.1-10.5-37.6c-0.2-0.8-1-1.2-1.8-1c-4,0.9-8.1,1.8-12.1,2.7c0.6,0.5,1.3,1,1.9,1.4c-0.7-6.2-1.5-12.4-2.2-18.6			c-0.1-0.7-0.6-1.6-1.5-1.5c-6.8,0.8-13.5,1.6-20.3,2.4C559.3,334.2,559.2,337.2,561.2,337L561.2,337z"/>	</g></g><g>	<g>		<path d="M682,490.6c2.4-18.7,4.8-37.4,5.3-56.2c0.5-17.6-0.8-35.4-5.1-52.5c-3.8-14.9-10.1-29.1-19-41.6			c-8.2-11.6-18.3-21.7-29.8-30s-24.3-14.7-37.9-18.6c-1.7-0.5-3.3-0.9-5-1.3c-1.9-0.5-2.7,2.4-0.8,2.9c13.5,3.3,26.3,9,37.9,16.7			c11.6,7.7,21.9,17.3,30.3,28.3c9,11.8,15.6,25,19.8,39.2c4.9,16.6,6.6,33.9,6.6,51.1c-0.1,18.5-2.2,36.9-4.5,55.3			c-0.3,2.3-0.6,4.6-0.9,6.9C678.8,492.5,681.8,492.5,682,490.6L682,490.6z"/>	</g></g><g>	<g>		<path d="M379.1,248.2c-23.3,16.6-46.8,32.8-70.7,48.5c-23.8,15.7-47.8,31-72.1,45.8c-24.4,14.9-49.1,29.3-74,43.3			c-24.8,13.9-49.9,27.5-75.2,40.5c-25.4,13.1-51,25.8-76.9,37.9c-3.2,1.5-6.4,3-9.5,4.5c-1.3,0.6-0.7,2.3,0.4,2.7			c31.3,12.7,63.4,23.5,96,32.4c32.7,8.9,66,15.8,99.5,20.7c18.7,2.7,37.5,4.8,56.4,6.3c-0.5-0.6-1-1.3-1.4-1.9			c-4.8,26.1-9.6,52.2-14.4,78.2c-0.2,1.3,1,2.3,2.2,1.7c14.7-6.8,29.4-13.6,44.2-20.4c1.8-0.8,0.2-3.4-1.5-2.6			c-14.7,6.8-29.4,13.6-44.2,20.4c0.7,0.6,1.5,1.1,2.2,1.7c4.8-26.1,9.6-52.2,14.4-78.2c0.2-1-0.4-1.8-1.4-1.9			c-33.7-2.6-67.2-7.3-100.3-14c-33-6.6-65.6-15.3-97.6-25.8c-17.9-5.9-35.7-12.4-53.2-19.5c0.1,0.9,0.2,1.8,0.4,2.7			c25.9-12.1,51.6-24.6,77.1-37.6c25.4-12.9,50.5-26.3,75.4-40.2c25-13.9,49.7-28.2,74.2-43c24.4-14.7,48.5-29.9,72.3-45.5			c23.9-15.6,47.6-31.7,70.9-48.2c2.9-2,5.7-4.1,8.6-6.1C382.1,249.7,380.6,247.1,379.1,248.2L379.1,248.2z"/>	</g></g></svg>